<svg width="20" height="20" viewBox="0 0 20 20" fill="none" xmlns="http://www.w3.org/2000/svg">
<g clip-path="url(#clip0_9654_13384)">
<path d="M16.2354 10L13.2354 15.1962L16.492 16.6936C17.4304 17.1252 18.5431 16.7711 19.0596 15.8765L19.7367 14.7037C20.2532 13.8092 20.0035 12.6685 19.1605 12.0716L16.2354 10Z" fill="#E9E9FF"/>
<path d="M3.79492 10L6.79492 15.1962L3.53832 16.6936C2.59986 17.1252 1.48717 16.7711 0.970706 15.8765L0.29358 14.7037C-0.222879 13.8092 0.0268108 12.6685 0.869756 12.0716L3.79492 10Z" fill="#E9E9FF"/>
<path d="M7 5H13L12.6801 1.80099C12.5779 0.77859 11.7175 0 10.69 0H9.30998C8.28247 0 7.42214 0.778589 7.3199 1.80099L7 5Z" fill="#E9E9FF"/>
<path d="M7 15H13L12.6801 18.199C12.5779 19.2214 11.7175 20 10.69 20H9.30998C8.28247 20 7.42214 19.2214 7.3199 18.199L7 15Z" fill="#E9E9FF"/>
<path d="M6.77295 4.77612L3.77295 9.97228L0.869035 7.91383C0.0266328 7.31669 -0.222705 6.17642 0.293584 5.28218L0.971523 4.10795C1.48781 3.21371 2.59998 2.85951 3.53832 3.29048L6.77295 4.77612Z" fill="#E9E9FF"/>
<path d="M13.2578 4.77612L16.2578 9.97228L19.1617 7.91383C20.0041 7.31669 20.2535 6.17642 19.7372 5.28218L19.0592 4.10795C18.5429 3.21371 17.4308 2.85951 16.4924 3.29048L13.2578 4.77612Z" fill="#E9E9FF"/>
<circle cx="10" cy="10" r="7" fill="#E9E9FF"/>
<circle cx="10" cy="10" r="4" fill="#9999EE"/>
</g>
<defs>
<clipPath id="clip0_9654_13384">
<rect width="20" height="20" fill="white"/>
</clipPath>
</defs>
</svg>
