<svg width="33" height="32" viewBox="0 0 33 32" fill="none" xmlns="http://www.w3.org/2000/svg">
<g clip-path="url(#clip0_10663_2965)">
<mask id="mask0_10663_2965" style="mask-type:alpha" maskUnits="userSpaceOnUse" x="-9" y="0" width="50" height="32">
<rect x="-8.5" width="49" height="32" fill="#C4C4C4"/>
</mask>
<g mask="url(#mask0_10663_2965)">
<path fill-rule="evenodd" clip-rule="evenodd" d="M16.5 32C25.3366 32 32.5 24.8366 32.5 16C32.5 7.16345 25.3366 0 16.5 0C7.66344 0 0.5 7.16345 0.5 16C0.5 24.8366 7.66344 32 16.5 32ZM18.9696 12.3621C20.3334 10.9981 20.3334 8.78686 18.9696 7.42293C17.6057 6.05903 15.3944 6.05903 14.0305 7.42293C12.6666 8.78686 12.6666 10.9981 14.0305 12.3621L16.5 14.8316L18.9696 12.3621ZM20.138 18.4696C21.5019 19.8335 23.7132 19.8335 25.0771 18.4696C26.441 17.1057 26.441 14.8944 25.0771 13.5305C23.7132 12.1666 21.5019 12.1666 20.138 13.5305L17.6685 16.0001L20.138 18.4696ZM18.9696 24.5771C20.3334 23.2132 20.3334 21.0019 18.9696 19.638L16.5 17.1685L14.0305 19.638C12.6666 21.0019 12.6666 23.2132 14.0305 24.5771C15.3944 25.941 17.6057 25.941 18.9696 24.5771ZM7.92291 18.4696C6.55904 17.1057 6.55904 14.8944 7.92291 13.5305C9.28686 12.1666 11.4981 12.1666 12.8621 13.5305L15.3316 16.0001L12.8621 18.4696C11.4981 19.8335 9.28686 19.8335 7.92291 18.4696Z" fill="#5B5CE2"/>
</g>
</g>
<defs>
<clipPath id="clip0_10663_2965">
<rect width="32" height="32" fill="white" transform="translate(0.5)"/>
</clipPath>
</defs>
</svg>
